PathFileType	4	(X/Y/Z)	C:/Users/beibeiliu/ov580/test_trc/User2\sequence.19_training_dense_right.trc
DataRate	CameraRate	NumFrames	NumMarkers	Units	OrigDataRate	OrigDataStartFrame	OrigNumFrames
120	120	12	19	mm	120	1	40
Frame#	Time	ThumbCMC			ThumbMCP			ThumbIP			ThumbTip			IndexMCP			IndexPIP			IndexTip			MiddleMCP			MiddlePIP			MiddleTip			RingMCP			RingPIP			RingTip			PinkyMCP			PinkyPIP			PinkyTip			BackHand1			BackHand2			BackHand3	
		X0	Y0	Z0	X1	Y1	Z1	X2	Y2	Z2	X3	Y3	Z3	X4	Y4	Z4	X5	Y5	Z5	X6	Y6	Z6	X7	Y7	Z7	X8	Y8	Z8	X9	Y9	Z9	X10	Y10	Z10	X11	Y11	Z11	X12	Y12	Z12	X13	Y13	Z13	X14	Y14	Z14	X15	Y15	Z15	X16	Y16	Z16	X17	Y17	Z17	X18	Y18	Z18	
0	0	40.2076	17.4869	-9.53783	8.54248	-1.27289	-32.6846	13.2443	-35.0275	-52.8631	37.8707	-52.4455	-52.5301	30.9643	4.06127	-89.8722	13.4016	-0.853285	-114.555	-0.359791	-1.93671	-134.412	51.7351	-21.901	-98.0107	37.1006	-31.0123	-123.227	28.1157	-45.5372	-150.615	64.8214	-42.5318	-89.4287	57.9682	-55.4464	-111.493	53.75	-68.4237	-136.855	77.9894	-59.709	-68.3596	77.0018	-77.8527	-85.7195	80.435	-91.2413	-102.371	88.1558	-16.2664	-43.9863	104.093	-0.355575	-17.4087	74.3423	18.7654	-32.0567	
1	0.00833333	48.2844	38.5153	-15.5305	16.1103	26.9236	-27.3715	8.89635	-10.3229	-43.9931	21.8761	-35.5428	-43.1354	30.5058	19.1687	-87.7308	11.5127	19.9341	-110.949	-4.65177	14.244	-133.076	39.3596	-10.0003	-91.9418	18.6869	-21.7318	-117.911	5.07477	-35.5187	-140.487	45.4975	-34.4104	-84.0982	36.9435	-51.4459	-97.2283	22.4094	-61.8895	-122.911	54.7601	-52.1432	-58.3976	45.6032	-72.3674	-73.7452	39.3672	-86.2236	-91.5572	81.7372	-12.5166	-41.8384	103.946	-0.500512	-18.7754	80.8713	26.1113	-38.4451	
2	0.0166667	63.7132	57.0435	-15.1111	26.0794	48.5259	-28.1642	6.80178	15.2489	-37.9924	16.4422	-11.4057	-34.3677	33.5116	33.1206	-87.7838	16.0386	38.4369	-106.441	-2.52209	34.4151	-127.709	29.8519	0.698936	-91.5548	8.60741	-6.04102	-110.829	-11.3561	-19.1482	-131.679	34.469	-24.555	-75.3461	18.4352	-33.953	-88.898	0.0294917	-47.0458	-109.112	39.0176	-39.8717	-51.5241	23.5354	-56.196	-59.0979	13.7828	-69.7866	-73.4842	76.7295	-8.00195	-40.8731	102.746	-3.07368	-21.6146	89.1622	28.7482	-40.387	
3	0.025	75.6325	64.9752	-19.6718	37.1803	67.6156	-27.9414	12.1817	34.6419	-34.9496	13.6923	6.0172	-29.2365	40.9235	45.6163	-85.7442	19.3922	51.8186	-108.101	1.16084	49.7669	-126.5	30.1211	8.74123	-85.7826	4.48624	5.29112	-105.936	-17.6193	-2.07864	-123.001	28.5992	-11.6678	-72.7413	8.56366	-21.8836	-85.777	-12.371	-28.1153	-102.458	31.1119	-26.2418	-43.9788	12.4437	-38.3298	-49.9337	-4.85708	-55.9506	-64.0497	75.825	-0.910752	-40.2578	102.402	-0.6965	-17.2967	91.8869	33.1583	-43.6644	
4	0.0333333	89.7144	70.8104	-22.7909	53.7036	80.3746	-29.2407	21.2285	56.8211	-33.4202	17.7666	27.0983	-25.4139	46.507	54.646	-87.8761	31.7376	64.5911	-105.412	10.5352	66.1157	-124.205	35.3736	26.2393	-82.7637	5.39322	25.8615	-103.328	-16.1373	23.4044	-119.852	28.9069	4.94326	-65.3145	3.70075	-0.379786	-83.0562	-18.7643	-6.09406	-99.3708	26.8457	-10.3066	-36.2906	1.14066	-21.0803	-46.8998	-19.0706	-31.5588	-55.9214	76.0355	4.75631	-34.6476	101.19	-3.10141	-15.7024	98.7819	29.4288	-38.9352	
5	0.0416667	101.677	72.2315	-24.2954	70.9936	88.6651	-30.5499	36.7631	77.6065	-32.0736	24.6464	50.6487	-24.6369	58.916	66.3808	-87.5784	40.1688	73.8833	-107.702	26.5957	86.4173	-130.055	37.8607	37.7912	-81.6999	11.9269	42.3303	-100.843	-10.1799	47.6415	-119.173	25.9641	22.0101	-67.1981	3.91317	18.6394	-78.5124	-17.2013	22.4177	-96.1571	18.9371	6.94943	-35.5061	-2.12862	6.13669	-43.4661	-28.1773	-3.71535	-52.9738	69.2846	8.97701	-33.0984	95.457	1.85035	-16.3081	99.0275	30.7359	-41.4272	
6	0.05	114.515	68.6203	-26.7552	90.282	96.5219	-38.1675	49.5781	92.558	-41.2787	32.5564	67.9826	-29.476	72.386	70.9635	-92.5734	61.832	85.1846	-115.772	44.1267	93.5945	-135.169	46.6552	52.7649	-88.003	23.4638	63.076	-106.671	0.606605	71.5035	-126.137	27.0587	37.2995	-68.8733	6.82532	41.8042	-81.8392	-12.9442	47.3295	-99.4462	21.4173	31.3276	-38.8079	-5.95595	33.7382	-44.6724	-29.2217	32.2915	-56.6049	72.1362	17.717	-35.466	93.7584	5.33738	-16.6697	103.849	31.6989	-43.8265	
7	0.0583333	129.748	62.2926	-28.8204	109.378	93.5669	-46.0463	70.6585	98.6971	-50.0648	47.3878	77.6953	-38.1388	89.6271	69.7903	-99.9253	77.8423	84.1126	-124.252	68.0683	96.8105	-147.468	55.2739	59.814	-94.2366	37.5383	74.1736	-115.431	14.4548	85.8271	-137.409	33.9727	50.5044	-74.7841	15.129	57.9873	-89.6044	1.61921	67.4997	-109.785	27.9939	46.7561	-44.3523	6.48816	56.3913	-52.9319	-18.0476	57.2117	-64.1544	71.4619	23.7233	-42.7854	91.4244	4.98433	-17.4105	111.197	27.2557	-45.8975	
8	0.0666667	132.293	55.378	-34.7654	122.677	87.6527	-52.0648	87.2319	96.3991	-57.3177	59.6734	83.1593	-46.5941	98.8241	63.2468	-105.505	94.6959	74.9146	-130.393	85.847	86.1612	-151.462	65.6674	55.672	-99.7354	48.7529	72.2387	-125.516	35.3809	83.2667	-144.213	47.6565	50.2139	-80.8896	29.6394	60.4739	-97.8796	10.6643	70.8451	-121.276	32.6678	50.7954	-52.182	13.5032	63.4899	-64.7253	-7.81566	66.9165	-72.2415	71.7866	21.7594	-43.2396	86.8915	5.12746	-19.7873	111.842	21.5754	-45.1743	
9	0.075	141.861	48.0799	-34.8696	130.133	80.4191	-57.7337	96.3589	91.6057	-67.1952	67.1059	77.7189	-56.2425	105.516	50.8007	-109.784	107.224	61.209	-132.866	98.3008	72.5521	-161.213	76.2903	45.2681	-109.29	59.948	58.161	-134.63	47.9995	68.1575	-156.663	53.8856	42.0167	-87.0742	39.037	51.3486	-107.123	23.1132	60.8269	-131.216	36.4476	45.6842	-58.4977	19.4743	56.8979	-73.5344	1.74554	61.1752	-88.6663	81.0891	19.4532	-44.8249	88.5336	3.12102	-21.3327	114.314	13.1084	-45.5529	
10	0.0833333	142.151	41.9377	-39.5565	135.096	73.0315	-65.6892	100.407	85.9416	-76.3268	72.9897	70.5122	-62.4462	114.883	38.8978	-110.459	113.963	48.1913	-141.655	104.372	54.1961	-164.517	81.2595	33.086	-112.284	67.3689	40.5928	-137.481	54.9532	50.4995	-164.474	56.8475	31.8944	-95.1015	44.1335	37.9524	-114.224	30.3178	45.2908	-139.018	40.6088	38.0147	-64.5807	24.639	47.0317	-81.5897	4.14264	49.8565	-99.3011	85.6095	12.0103	-46.5498	94.6956	-4.17517	-20.6959	119.442	9.31797	-46.1387	
11	0.0916667	148.868	40.4387	-39.4513	137.91	65.9946	-66.5516	99.7931	75.1535	-82.287	74.141	59.9773	-68.7462	122.278	30.8268	-116.642	118.346	35.3557	-144.953	112.96	41.1048	-172.339	91.6951	21.6356	-114.119	75.833	25.851	-144.27	65.7945	30.8788	-171.961	64.6391	19.1527	-99.3312	50.0637	23.0034	-118.701	37.212	27.4804	-147.195	47.8718	27.0633	-75.6551	27.0584	32.1649	-89.2693	9.09783	32.569	-103.267	88.0721	5.47444	-53.5691	101.209	-7.39407	-23.9585	128.102	6.59724	-53.1821	
